<svg width="175" height="18" viewBox="0 0 175 18" fill="none" xmlns="http://www.w3.org/2000/svg">
<path d="M10.044 5.402V14H9.024V7.682C9.024 7.598 9.026 7.508 9.03 7.412C9.038 7.316 9.046 7.218 9.054 7.118L6.102 12.494C6.01 12.674 5.87 12.764 5.682 12.764H5.514C5.326 12.764 5.186 12.674 5.094 12.494L2.082 7.094C2.106 7.306 2.118 7.502 2.118 7.682V14H1.098V5.402H1.956C2.06 5.402 2.14 5.412 2.196 5.432C2.252 5.452 2.306 5.508 2.358 5.6L5.328 10.892C5.376 10.988 5.422 11.088 5.466 11.192C5.514 11.296 5.558 11.402 5.598 11.51C5.638 11.402 5.68 11.296 5.724 11.192C5.768 11.084 5.816 10.982 5.868 10.886L8.784 5.6C8.832 5.508 8.884 5.452 8.94 5.432C9 5.412 9.082 5.402 9.186 5.402H10.044ZM15.1088 11.264C14.6168 11.28 14.1968 11.32 13.8488 11.384C13.5048 11.444 13.2228 11.524 13.0028 11.624C12.7868 11.724 12.6288 11.842 12.5288 11.978C12.4328 12.114 12.3848 12.266 12.3848 12.434C12.3848 12.594 12.4108 12.732 12.4628 12.848C12.5148 12.964 12.5848 13.06 12.6728 13.136C12.7648 13.208 12.8708 13.262 12.9908 13.298C13.1148 13.33 13.2468 13.346 13.3868 13.346C13.5748 13.346 13.7468 13.328 13.9028 13.292C14.0588 13.252 14.2048 13.196 14.3408 13.124C14.4808 13.052 14.6128 12.966 14.7368 12.866C14.8648 12.766 14.9888 12.652 15.1088 12.524V11.264ZM11.6588 8.78C11.9948 8.456 12.3568 8.214 12.7448 8.054C13.1328 7.894 13.5628 7.814 14.0348 7.814C14.3748 7.814 14.6768 7.87 14.9408 7.982C15.2048 8.094 15.4268 8.25 15.6068 8.45C15.7868 8.65 15.9228 8.892 16.0148 9.176C16.1068 9.46 16.1528 9.772 16.1528 10.112V14H15.6788C15.5748 14 15.4948 13.984 15.4388 13.952C15.3828 13.916 15.3388 13.848 15.3068 13.748L15.1868 13.172C15.0268 13.32 14.8708 13.452 14.7188 13.568C14.5668 13.68 14.4068 13.776 14.2388 13.856C14.0708 13.932 13.8908 13.99 13.6988 14.03C13.5108 14.074 13.3008 14.096 13.0688 14.096C12.8328 14.096 12.6108 14.064 12.4028 14C12.1948 13.932 12.0128 13.832 11.8568 13.7C11.7048 13.568 11.5828 13.402 11.4908 13.202C11.4028 12.998 11.3588 12.758 11.3588 12.482C11.3588 12.242 11.4248 12.012 11.5568 11.792C11.6888 11.568 11.9028 11.37 12.1988 11.198C12.4948 11.026 12.8808 10.886 13.3568 10.778C13.8328 10.666 14.4168 10.602 15.1088 10.586V10.112C15.1088 9.64 15.0068 9.284 14.8028 9.044C14.5988 8.8 14.3008 8.678 13.9088 8.678C13.6448 8.678 13.4228 8.712 13.2428 8.78C13.0668 8.844 12.9128 8.918 12.7808 9.002C12.6528 9.082 12.5408 9.156 12.4448 9.224C12.3528 9.288 12.2608 9.32 12.1688 9.32C12.0968 9.32 12.0348 9.302 11.9828 9.266C11.9308 9.226 11.8868 9.178 11.8507 9.122L11.6588 8.78ZM21.7396 9.368C21.5396 9.1 21.3236 8.914 21.0916 8.81C20.8596 8.702 20.5996 8.648 20.3116 8.648C19.7476 8.648 19.3136 8.85 19.0096 9.254C18.7056 9.658 18.5536 10.234 18.5536 10.982C18.5536 11.378 18.5876 11.718 18.6556 12.002C18.7236 12.282 18.8236 12.514 18.9556 12.698C19.0876 12.878 19.2496 13.01 19.4416 13.094C19.6336 13.178 19.8516 13.22 20.0956 13.22C20.4476 13.22 20.7536 13.14 21.0136 12.98C21.2776 12.82 21.5196 12.594 21.7396 12.302V9.368ZM22.8076 5.162V14H22.1716C22.0196 14 21.9236 13.926 21.8836 13.778L21.7876 13.04C21.5276 13.352 21.2316 13.604 20.8996 13.796C20.5676 13.988 20.1836 14.084 19.7476 14.084C19.3996 14.084 19.0836 14.018 18.7996 13.886C18.5156 13.75 18.2736 13.552 18.0736 13.292C17.8736 13.032 17.7196 12.708 17.6116 12.32C17.5036 11.932 17.4496 11.486 17.4496 10.982C17.4496 10.534 17.5096 10.118 17.6296 9.734C17.7496 9.346 17.9216 9.01 18.1456 8.726C18.3696 8.442 18.6436 8.22 18.9676 8.06C19.2956 7.896 19.6636 7.814 20.0716 7.814C20.4436 7.814 20.7616 7.878 21.0256 8.006C21.2936 8.13 21.5316 8.304 21.7396 8.528V5.162H22.8076ZM28.5624 10.298C28.5624 10.05 28.5264 9.824 28.4544 9.62C28.3864 9.412 28.2844 9.234 28.1484 9.086C28.0164 8.934 27.8544 8.818 27.6624 8.738C27.4704 8.654 27.2524 8.612 27.0084 8.612C26.4964 8.612 26.0904 8.762 25.7904 9.062C25.4944 9.358 25.3104 9.77 25.2384 10.298H28.5624ZM29.4264 13.148C29.2944 13.308 29.1364 13.448 28.9524 13.568C28.7684 13.684 28.5704 13.78 28.3584 13.856C28.1504 13.932 27.9344 13.988 27.7104 14.024C27.4864 14.064 27.2644 14.084 27.0444 14.084C26.6244 14.084 26.2364 14.014 25.8804 13.874C25.5284 13.73 25.2224 13.522 24.9624 13.25C24.7064 12.974 24.5064 12.634 24.3624 12.23C24.2184 11.826 24.1464 11.362 24.1464 10.838C24.1464 10.414 24.2104 10.018 24.3384 9.65C24.4704 9.282 24.6584 8.964 24.9024 8.696C25.1464 8.424 25.4444 8.212 25.7964 8.06C26.1484 7.904 26.5444 7.826 26.9844 7.826C27.3484 7.826 27.6844 7.888 27.9924 8.012C28.3044 8.132 28.5724 8.308 28.7964 8.54C29.0244 8.768 29.2024 9.052 29.3304 9.392C29.4584 9.728 29.5224 10.112 29.5224 10.544C29.5224 10.712 29.5044 10.824 29.4684 10.88C29.4324 10.936 29.3644 10.964 29.2644 10.964H25.2024C25.2144 11.348 25.2664 11.682 25.3584 11.966C25.4544 12.25 25.5864 12.488 25.7544 12.68C25.9224 12.868 26.1224 13.01 26.3544 13.106C26.5864 13.198 26.8464 13.244 27.1344 13.244C27.4024 13.244 27.6324 13.214 27.8244 13.154C28.0204 13.09 28.1884 13.022 28.3284 12.95C28.4684 12.878 28.5844 12.812 28.6764 12.752C28.7724 12.688 28.8544 12.656 28.9224 12.656C29.0104 12.656 29.0784 12.69 29.1264 12.758L29.4264 13.148ZM42.0405 7.922L40.0725 14H39.2265C39.1225 14 39.0505 13.932 39.0105 13.796L37.6665 9.674C37.6345 9.582 37.6085 9.49 37.5885 9.398C37.5685 9.302 37.5485 9.208 37.5285 9.116C37.5085 9.208 37.4885 9.302 37.4685 9.398C37.4485 9.49 37.4225 9.584 37.3905 9.68L36.0225 13.796C35.9865 13.932 35.9065 14 35.7825 14H34.9785L33.0105 7.922H33.8505C33.9345 7.922 34.0045 7.944 34.0605 7.988C34.1205 8.032 34.1605 8.084 34.1805 8.144L35.3445 12.056C35.4125 12.344 35.4665 12.616 35.5065 12.872C35.5425 12.74 35.5785 12.606 35.6145 12.47C35.6545 12.334 35.6965 12.196 35.7405 12.056L37.0245 8.12C37.0445 8.06 37.0785 8.01 37.1265 7.97C37.1785 7.93 37.2405 7.91 37.3125 7.91H37.7805C37.8605 7.91 37.9265 7.93 37.9785 7.97C38.0305 8.01 38.0665 8.06 38.0865 8.12L39.3405 12.056C39.3845 12.196 39.4245 12.334 39.4605 12.47C39.4965 12.606 39.5305 12.74 39.5625 12.872C39.5825 12.74 39.6065 12.608 39.6345 12.476C39.6665 12.34 39.7005 12.2 39.7365 12.056L40.9245 8.144C40.9445 8.08 40.9825 8.028 41.0385 7.988C41.0945 7.944 41.1605 7.922 41.2365 7.922H42.0405ZM44.2084 7.922V14H43.1404V7.922H44.2084ZM44.4364 6.014C44.4364 6.118 44.4144 6.216 44.3704 6.308C44.3304 6.396 44.2744 6.476 44.2024 6.548C44.1344 6.616 44.0524 6.67 43.9564 6.71C43.8644 6.75 43.7664 6.77 43.6624 6.77C43.5584 6.77 43.4604 6.75 43.3684 6.71C43.2804 6.67 43.2024 6.616 43.1344 6.548C43.0664 6.476 43.0124 6.396 42.9724 6.308C42.9324 6.216 42.9124 6.118 42.9124 6.014C42.9124 5.91 42.9324 5.812 42.9724 5.72C43.0124 5.624 43.0664 5.542 43.1344 5.474C43.2024 5.402 43.2804 5.346 43.3684 5.306C43.4604 5.266 43.5584 5.246 43.6624 5.246C43.7664 5.246 43.8644 5.266 43.9564 5.306C44.0524 5.346 44.1344 5.402 44.2024 5.474C44.2744 5.542 44.3304 5.624 44.3704 5.72C44.4144 5.812 44.4364 5.91 44.4364 6.014ZM47.8292 14.096C47.3492 14.096 46.9792 13.962 46.7192 13.694C46.4632 13.426 46.3352 13.04 46.3352 12.536V8.816H45.6032C45.5392 8.816 45.4852 8.798 45.4412 8.762C45.3972 8.722 45.3752 8.662 45.3752 8.582V8.156L46.3712 8.03L46.6172 6.152C46.6292 6.092 46.6552 6.044 46.6952 6.008C46.7392 5.968 46.7952 5.948 46.8632 5.948H47.4032V8.042H49.1612V8.816H47.4032V12.464C47.4032 12.72 47.4652 12.91 47.5892 13.034C47.7132 13.158 47.8732 13.22 48.0692 13.22C48.1812 13.22 48.2772 13.206 48.3572 13.178C48.4412 13.146 48.5132 13.112 48.5732 13.076C48.6332 13.04 48.6832 13.008 48.7232 12.98C48.7672 12.948 48.8052 12.932 48.8372 12.932C48.8932 12.932 48.9432 12.966 48.9872 13.034L49.2992 13.544C49.1152 13.716 48.8932 13.852 48.6332 13.952C48.3732 14.048 48.1052 14.096 47.8292 14.096ZM51.338 8.732C51.598 8.456 51.886 8.236 52.202 8.072C52.518 7.908 52.882 7.826 53.294 7.826C53.626 7.826 53.918 7.882 54.17 7.994C54.426 8.102 54.638 8.258 54.806 8.462C54.978 8.662 55.108 8.904 55.196 9.188C55.284 9.472 55.328 9.786 55.328 10.13V14H54.254V10.13C54.254 9.67 54.148 9.314 53.936 9.062C53.728 8.806 53.41 8.678 52.982 8.678C52.666 8.678 52.37 8.754 52.094 8.906C51.822 9.058 51.57 9.264 51.338 9.524V14H50.264V5.162H51.338V8.732Z" fill="white"/>
<path fill-rule="evenodd" clip-rule="evenodd" d="M68.9997 14.2715C65.9337 12.5252 64.2237 10.7896 63.3968 9.28361C62.5504 7.74228 62.6243 6.4441 63.0939 5.52273C64.0592 3.62892 66.8043 3.02333 68.4768 5.13865L68.9997 5.80001L69.5227 5.13868C71.1955 3.02327 73.9407 3.62896 74.906 5.52273C75.3756 6.44409 75.4494 7.74226 74.603 9.28359C73.776 10.7895 72.0659 12.5252 68.9997 14.2715ZM68.9998 3.73726C66.647 1.50152 63.176 2.42555 61.906 4.91723C61.2089 6.2847 61.1994 8.05212 62.228 9.92536C63.2475 11.782 65.2801 13.7417 68.6772 15.6194L68.9997 15.7976L69.3222 15.6194C72.7195 13.7417 74.7522 11.782 75.7717 9.92537C76.8004 8.05214 76.7909 6.28472 76.0939 4.91723C74.8238 2.4255 71.3528 1.50155 68.9998 3.73726Z" fill="#FF3F3A"/>
<path d="M82.92 12.536C83.116 12.8 83.33 12.986 83.562 13.094C83.798 13.202 84.056 13.256 84.336 13.256C84.908 13.256 85.346 13.054 85.65 12.65C85.954 12.246 86.106 11.644 86.106 10.844C86.106 10.1 85.97 9.554 85.698 9.206C85.43 8.854 85.046 8.678 84.546 8.678C84.198 8.678 83.894 8.758 83.634 8.918C83.378 9.078 83.14 9.304 82.92 9.596V12.536ZM82.92 8.798C83.176 8.502 83.464 8.266 83.784 8.09C84.108 7.914 84.48 7.826 84.9 7.826C85.256 7.826 85.576 7.894 85.86 8.03C86.148 8.166 86.392 8.364 86.592 8.624C86.792 8.88 86.944 9.192 87.048 9.56C87.156 9.928 87.21 10.342 87.21 10.802C87.21 11.294 87.15 11.742 87.03 12.146C86.91 12.55 86.736 12.896 86.508 13.184C86.284 13.468 86.01 13.69 85.686 13.85C85.362 14.006 84.998 14.084 84.594 14.084C84.194 14.084 83.856 14.01 83.58 13.862C83.308 13.71 83.07 13.496 82.866 13.22L82.812 13.772C82.78 13.924 82.688 14 82.536 14H81.846V5.162H82.92V8.798ZM93.6525 7.922L90.2625 15.794C90.2265 15.874 90.1805 15.938 90.1245 15.986C90.0725 16.034 89.9905 16.058 89.8785 16.058H89.0865L90.1965 13.646L87.6885 7.922H88.6125C88.7045 7.922 88.7765 7.946 88.8285 7.994C88.8845 8.038 88.9225 8.088 88.9425 8.144L90.5685 11.972C90.6325 12.14 90.6865 12.316 90.7305 12.5C90.7865 12.312 90.8465 12.134 90.9105 11.966L92.4885 8.144C92.5125 8.08 92.5525 8.028 92.6085 7.988C92.6685 7.944 92.7345 7.922 92.8065 7.922H93.6525ZM103.661 12.224C103.725 12.224 103.781 12.25 103.829 12.302L104.291 12.8C103.939 13.208 103.511 13.526 103.007 13.754C102.507 13.982 101.901 14.096 101.189 14.096C100.573 14.096 100.013 13.99 99.5093 13.778C99.0053 13.562 98.5753 13.262 98.2193 12.878C97.8633 12.49 97.5873 12.026 97.3913 11.486C97.1953 10.946 97.0973 10.352 97.0973 9.704C97.0973 9.056 97.1993 8.462 97.4033 7.922C97.6073 7.382 97.8933 6.918 98.2613 6.53C98.6333 6.142 99.0773 5.842 99.5933 5.63C100.109 5.414 100.679 5.306 101.303 5.306C101.915 5.306 102.455 5.404 102.923 5.6C103.391 5.796 103.803 6.062 104.159 6.398L103.775 6.932C103.751 6.972 103.719 7.006 103.679 7.034C103.643 7.058 103.593 7.07 103.529 7.07C103.457 7.07 103.369 7.032 103.265 6.956C103.161 6.876 103.025 6.788 102.857 6.692C102.689 6.596 102.479 6.51 102.227 6.434C101.975 6.354 101.665 6.314 101.297 6.314C100.853 6.314 100.447 6.392 100.079 6.548C99.7113 6.7 99.3933 6.922 99.1253 7.214C98.8613 7.506 98.6553 7.862 98.5073 8.282C98.3593 8.702 98.2853 9.176 98.2853 9.704C98.2853 10.24 98.3613 10.718 98.5133 11.138C98.6693 11.558 98.8793 11.914 99.1433 12.206C99.4113 12.494 99.7253 12.714 100.085 12.866C100.449 13.018 100.841 13.094 101.261 13.094C101.517 13.094 101.747 13.08 101.951 13.052C102.159 13.02 102.349 12.972 102.521 12.908C102.697 12.844 102.859 12.764 103.007 12.668C103.159 12.568 103.309 12.45 103.457 12.314C103.525 12.254 103.593 12.224 103.661 12.224ZM106.368 9.14C106.56 8.724 106.796 8.4 107.076 8.168C107.356 7.932 107.698 7.814 108.102 7.814C108.23 7.814 108.352 7.828 108.468 7.856C108.588 7.884 108.694 7.928 108.786 7.988L108.708 8.786C108.684 8.886 108.624 8.936 108.528 8.936C108.472 8.936 108.39 8.924 108.282 8.9C108.174 8.876 108.052 8.864 107.916 8.864C107.724 8.864 107.552 8.892 107.4 8.948C107.252 9.004 107.118 9.088 106.998 9.2C106.882 9.308 106.776 9.444 106.68 9.608C106.588 9.768 106.504 9.952 106.428 10.16V14H105.354V7.922H105.966C106.082 7.922 106.162 7.944 106.206 7.988C106.25 8.032 106.28 8.108 106.296 8.216L106.368 9.14ZM113.547 10.298C113.547 10.05 113.511 9.824 113.439 9.62C113.371 9.412 113.269 9.234 113.133 9.086C113.001 8.934 112.839 8.818 112.647 8.738C112.455 8.654 112.237 8.612 111.993 8.612C111.481 8.612 111.075 8.762 110.775 9.062C110.479 9.358 110.295 9.77 110.223 10.298H113.547ZM114.411 13.148C114.279 13.308 114.121 13.448 113.937 13.568C113.753 13.684 113.555 13.78 113.343 13.856C113.135 13.932 112.919 13.988 112.695 14.024C112.471 14.064 112.249 14.084 112.029 14.084C111.609 14.084 111.221 14.014 110.865 13.874C110.513 13.73 110.207 13.522 109.947 13.25C109.691 12.974 109.491 12.634 109.347 12.23C109.203 11.826 109.131 11.362 109.131 10.838C109.131 10.414 109.195 10.018 109.323 9.65C109.455 9.282 109.643 8.964 109.887 8.696C110.131 8.424 110.429 8.212 110.781 8.06C111.133 7.904 111.529 7.826 111.969 7.826C112.333 7.826 112.669 7.888 112.977 8.012C113.289 8.132 113.557 8.308 113.781 8.54C114.009 8.768 114.187 9.052 114.315 9.392C114.443 9.728 114.507 10.112 114.507 10.544C114.507 10.712 114.489 10.824 114.453 10.88C114.417 10.936 114.349 10.964 114.249 10.964H110.187C110.199 11.348 110.251 11.682 110.343 11.966C110.439 12.25 110.571 12.488 110.739 12.68C110.907 12.868 111.107 13.01 111.339 13.106C111.571 13.198 111.831 13.244 112.119 13.244C112.387 13.244 112.617 13.214 112.809 13.154C113.005 13.09 113.173 13.022 113.313 12.95C113.453 12.878 113.569 12.812 113.661 12.752C113.757 12.688 113.839 12.656 113.907 12.656C113.995 12.656 114.063 12.69 114.111 12.758L114.411 13.148ZM119.113 11.264C118.621 11.28 118.201 11.32 117.853 11.384C117.509 11.444 117.227 11.524 117.007 11.624C116.791 11.724 116.633 11.842 116.533 11.978C116.437 12.114 116.389 12.266 116.389 12.434C116.389 12.594 116.415 12.732 116.467 12.848C116.519 12.964 116.589 13.06 116.677 13.136C116.769 13.208 116.875 13.262 116.995 13.298C117.119 13.33 117.251 13.346 117.391 13.346C117.579 13.346 117.751 13.328 117.907 13.292C118.063 13.252 118.209 13.196 118.345 13.124C118.485 13.052 118.617 12.966 118.741 12.866C118.869 12.766 118.993 12.652 119.113 12.524V11.264ZM115.663 8.78C115.999 8.456 116.361 8.214 116.749 8.054C117.137 7.894 117.567 7.814 118.039 7.814C118.379 7.814 118.681 7.87 118.945 7.982C119.209 8.094 119.431 8.25 119.611 8.45C119.791 8.65 119.927 8.892 120.019 9.176C120.111 9.46 120.157 9.772 120.157 10.112V14H119.683C119.579 14 119.499 13.984 119.443 13.952C119.387 13.916 119.343 13.848 119.311 13.748L119.191 13.172C119.031 13.32 118.875 13.452 118.723 13.568C118.571 13.68 118.411 13.776 118.243 13.856C118.075 13.932 117.895 13.99 117.703 14.03C117.515 14.074 117.305 14.096 117.073 14.096C116.837 14.096 116.615 14.064 116.407 14C116.199 13.932 116.017 13.832 115.861 13.7C115.709 13.568 115.587 13.402 115.495 13.202C115.407 12.998 115.363 12.758 115.363 12.482C115.363 12.242 115.429 12.012 115.561 11.792C115.693 11.568 115.907 11.37 116.203 11.198C116.499 11.026 116.885 10.886 117.361 10.778C117.837 10.666 118.421 10.602 119.113 10.586V10.112C119.113 9.64 119.011 9.284 118.807 9.044C118.603 8.8 118.305 8.678 117.913 8.678C117.649 8.678 117.427 8.712 117.247 8.78C117.071 8.844 116.917 8.918 116.785 9.002C116.657 9.082 116.545 9.156 116.449 9.224C116.357 9.288 116.265 9.32 116.173 9.32C116.101 9.32 116.039 9.302 115.987 9.266C115.935 9.226 115.891 9.178 115.855 9.122L115.663 8.78ZM123.567 14.096C123.087 14.096 122.717 13.962 122.457 13.694C122.201 13.426 122.073 13.04 122.073 12.536V8.816H121.341C121.277 8.816 121.223 8.798 121.179 8.762C121.135 8.722 121.113 8.662 121.113 8.582V8.156L122.109 8.03L122.355 6.152C122.367 6.092 122.393 6.044 122.433 6.008C122.477 5.968 122.533 5.948 122.601 5.948H123.141V8.042H124.899V8.816H123.141V12.464C123.141 12.72 123.203 12.91 123.327 13.034C123.451 13.158 123.611 13.22 123.807 13.22C123.919 13.22 124.015 13.206 124.095 13.178C124.179 13.146 124.251 13.112 124.311 13.076C124.371 13.04 124.421 13.008 124.461 12.98C124.505 12.948 124.543 12.932 124.575 12.932C124.631 12.932 124.681 12.966 124.725 13.034L125.037 13.544C124.853 13.716 124.631 13.852 124.371 13.952C124.111 14.048 123.843 14.096 123.567 14.096ZM130.035 10.298C130.035 10.05 129.999 9.824 129.927 9.62C129.859 9.412 129.757 9.234 129.621 9.086C129.489 8.934 129.327 8.818 129.135 8.738C128.943 8.654 128.725 8.612 128.481 8.612C127.969 8.612 127.563 8.762 127.263 9.062C126.967 9.358 126.783 9.77 126.711 10.298H130.035ZM130.899 13.148C130.767 13.308 130.609 13.448 130.425 13.568C130.241 13.684 130.043 13.78 129.831 13.856C129.623 13.932 129.407 13.988 129.183 14.024C128.959 14.064 128.737 14.084 128.517 14.084C128.097 14.084 127.709 14.014 127.353 13.874C127.001 13.73 126.695 13.522 126.435 13.25C126.179 12.974 125.979 12.634 125.835 12.23C125.691 11.826 125.619 11.362 125.619 10.838C125.619 10.414 125.683 10.018 125.811 9.65C125.943 9.282 126.131 8.964 126.375 8.696C126.619 8.424 126.917 8.212 127.269 8.06C127.621 7.904 128.017 7.826 128.457 7.826C128.821 7.826 129.157 7.888 129.465 8.012C129.777 8.132 130.045 8.308 130.269 8.54C130.497 8.768 130.675 9.052 130.803 9.392C130.931 9.728 130.995 10.112 130.995 10.544C130.995 10.712 130.977 10.824 130.941 10.88C130.905 10.936 130.837 10.964 130.737 10.964H126.675C126.687 11.348 126.739 11.682 126.831 11.966C126.927 12.25 127.059 12.488 127.227 12.68C127.395 12.868 127.595 13.01 127.827 13.106C128.059 13.198 128.319 13.244 128.607 13.244C128.875 13.244 129.105 13.214 129.297 13.154C129.493 13.09 129.661 13.022 129.801 12.95C129.941 12.878 130.057 12.812 130.149 12.752C130.245 12.688 130.327 12.656 130.395 12.656C130.483 12.656 130.551 12.69 130.599 12.758L130.899 13.148ZM137.217 14H136.191C136.103 14 136.033 13.978 135.981 13.934C135.933 13.886 135.893 13.834 135.861 13.778L134.331 11.396C134.315 11.452 134.297 11.508 134.277 11.564C134.261 11.616 134.237 11.664 134.205 11.708L132.789 13.778C132.749 13.834 132.705 13.886 132.657 13.934C132.613 13.978 132.551 14 132.471 14H131.517L133.647 10.88L131.601 7.922H132.627C132.715 7.922 132.779 7.936 132.819 7.964C132.859 7.992 132.895 8.032 132.927 8.084L134.421 10.364C134.453 10.248 134.503 10.136 134.571 10.028L135.879 8.108C135.915 8.052 135.953 8.008 135.993 7.976C136.037 7.94 136.089 7.922 136.149 7.922H137.133L135.087 10.826L137.217 14ZM145.922 6.746C145.886 6.806 145.846 6.852 145.802 6.884C145.762 6.912 145.712 6.926 145.652 6.926C145.584 6.926 145.504 6.892 145.412 6.824C145.32 6.756 145.204 6.682 145.064 6.602C144.928 6.518 144.762 6.442 144.566 6.374C144.374 6.306 144.14 6.272 143.864 6.272C143.604 6.272 143.374 6.308 143.174 6.38C142.978 6.448 142.812 6.542 142.676 6.662C142.544 6.782 142.444 6.924 142.376 7.088C142.308 7.248 142.274 7.422 142.274 7.61C142.274 7.85 142.332 8.05 142.448 8.21C142.568 8.366 142.724 8.5 142.916 8.612C143.112 8.724 143.332 8.822 143.576 8.906C143.824 8.986 144.076 9.07 144.332 9.158C144.592 9.246 144.844 9.346 145.088 9.458C145.336 9.566 145.556 9.704 145.748 9.872C145.944 10.04 146.1 10.246 146.216 10.49C146.336 10.734 146.396 11.034 146.396 11.39C146.396 11.766 146.332 12.12 146.204 12.452C146.076 12.78 145.888 13.066 145.64 13.31C145.396 13.554 145.094 13.746 144.734 13.886C144.378 14.026 143.972 14.096 143.516 14.096C142.956 14.096 142.448 13.996 141.992 13.796C141.536 13.592 141.146 13.318 140.822 12.974L141.158 12.422C141.19 12.378 141.228 12.342 141.272 12.314C141.32 12.282 141.372 12.266 141.428 12.266C141.48 12.266 141.538 12.288 141.602 12.332C141.67 12.372 141.746 12.424 141.83 12.488C141.914 12.552 142.01 12.622 142.118 12.698C142.226 12.774 142.348 12.844 142.484 12.908C142.624 12.972 142.782 13.026 142.958 13.07C143.134 13.11 143.332 13.13 143.552 13.13C143.828 13.13 144.074 13.092 144.29 13.016C144.506 12.94 144.688 12.834 144.836 12.698C144.988 12.558 145.104 12.392 145.184 12.2C145.264 12.008 145.304 11.794 145.304 11.558C145.304 11.298 145.244 11.086 145.124 10.922C145.008 10.754 144.854 10.614 144.662 10.502C144.47 10.39 144.25 10.296 144.002 10.22C143.754 10.14 143.502 10.06 143.246 9.98C142.99 9.896 142.738 9.8 142.49 9.692C142.242 9.584 142.022 9.444 141.83 9.272C141.638 9.1 141.482 8.886 141.362 8.63C141.246 8.37 141.188 8.05 141.188 7.67C141.188 7.366 141.246 7.072 141.362 6.788C141.482 6.504 141.654 6.252 141.878 6.032C142.106 5.812 142.384 5.636 142.712 5.504C143.044 5.372 143.424 5.306 143.852 5.306C144.332 5.306 144.768 5.382 145.16 5.534C145.556 5.686 145.904 5.906 146.204 6.194L145.922 6.746ZM149.384 14.096C148.904 14.096 148.534 13.962 148.274 13.694C148.018 13.426 147.89 13.04 147.89 12.536V8.816H147.158C147.094 8.816 147.04 8.798 146.996 8.762C146.952 8.722 146.93 8.662 146.93 8.582V8.156L147.926 8.03L148.172 6.152C148.184 6.092 148.21 6.044 148.25 6.008C148.294 5.968 148.35 5.948 148.418 5.948H148.958V8.042H150.716V8.816H148.958V12.464C148.958 12.72 149.02 12.91 149.144 13.034C149.268 13.158 149.428 13.22 149.624 13.22C149.736 13.22 149.832 13.206 149.912 13.178C149.996 13.146 150.068 13.112 150.128 13.076C150.188 13.04 150.238 13.008 150.278 12.98C150.322 12.948 150.36 12.932 150.392 12.932C150.448 12.932 150.498 12.966 150.542 13.034L150.854 13.544C150.67 13.716 150.448 13.852 150.188 13.952C149.928 14.048 149.66 14.096 149.384 14.096ZM156.817 7.922V14H156.181C156.029 14 155.933 13.926 155.893 13.778L155.809 13.124C155.545 13.416 155.249 13.652 154.921 13.832C154.593 14.008 154.217 14.096 153.793 14.096C153.461 14.096 153.167 14.042 152.911 13.934C152.659 13.822 152.447 13.666 152.275 13.466C152.103 13.266 151.973 13.024 151.885 12.74C151.801 12.456 151.759 12.142 151.759 11.798V7.922H152.827V11.798C152.827 12.258 152.931 12.614 153.139 12.866C153.351 13.118 153.673 13.244 154.105 13.244C154.421 13.244 154.715 13.17 154.987 13.022C155.263 12.87 155.517 12.662 155.749 12.398V7.922H156.817ZM162.47 9.368C162.27 9.1 162.054 8.914 161.822 8.81C161.59 8.702 161.33 8.648 161.042 8.648C160.478 8.648 160.044 8.85 159.74 9.254C159.436 9.658 159.284 10.234 159.284 10.982C159.284 11.378 159.318 11.718 159.386 12.002C159.454 12.282 159.554 12.514 159.686 12.698C159.818 12.878 159.98 13.01 160.172 13.094C160.364 13.178 160.582 13.22 160.826 13.22C161.178 13.22 161.484 13.14 161.744 12.98C162.008 12.82 162.25 12.594 162.47 12.302V9.368ZM163.538 5.162V14H162.902C162.75 14 162.654 13.926 162.614 13.778L162.518 13.04C162.258 13.352 161.962 13.604 161.63 13.796C161.298 13.988 160.914 14.084 160.478 14.084C160.13 14.084 159.814 14.018 159.53 13.886C159.246 13.75 159.004 13.552 158.804 13.292C158.604 13.032 158.45 12.708 158.342 12.32C158.234 11.932 158.18 11.486 158.18 10.982C158.18 10.534 158.24 10.118 158.36 9.734C158.48 9.346 158.652 9.01 158.876 8.726C159.1 8.442 159.374 8.22 159.698 8.06C160.026 7.896 160.394 7.814 160.802 7.814C161.174 7.814 161.492 7.878 161.756 8.006C162.024 8.13 162.262 8.304 162.47 8.528V5.162H163.538ZM166.353 7.922V14H165.285V7.922H166.353ZM166.581 6.014C166.581 6.118 166.559 6.216 166.515 6.308C166.475 6.396 166.419 6.476 166.347 6.548C166.279 6.616 166.197 6.67 166.101 6.71C166.009 6.75 165.911 6.77 165.807 6.77C165.703 6.77 165.605 6.75 165.513 6.71C165.425 6.67 165.347 6.616 165.279 6.548C165.211 6.476 165.157 6.396 165.117 6.308C165.077 6.216 165.057 6.118 165.057 6.014C165.057 5.91 165.077 5.812 165.117 5.72C165.157 5.624 165.211 5.542 165.279 5.474C165.347 5.402 165.425 5.346 165.513 5.306C165.605 5.266 165.703 5.246 165.807 5.246C165.911 5.246 166.009 5.266 166.101 5.306C166.197 5.346 166.279 5.402 166.347 5.474C166.419 5.542 166.475 5.624 166.515 5.72C166.559 5.812 166.581 5.91 166.581 6.014ZM170.67 7.826C171.114 7.826 171.514 7.9 171.87 8.048C172.226 8.196 172.53 8.406 172.782 8.678C173.034 8.95 173.226 9.28 173.358 9.668C173.494 10.052 173.562 10.482 173.562 10.958C173.562 11.438 173.494 11.87 173.358 12.254C173.226 12.638 173.034 12.966 172.782 13.238C172.53 13.51 172.226 13.72 171.87 13.868C171.514 14.012 171.114 14.084 170.67 14.084C170.222 14.084 169.818 14.012 169.458 13.868C169.102 13.72 168.798 13.51 168.546 13.238C168.294 12.966 168.1 12.638 167.964 12.254C167.832 11.87 167.766 11.438 167.766 10.958C167.766 10.482 167.832 10.052 167.964 9.668C168.1 9.28 168.294 8.95 168.546 8.678C168.798 8.406 169.102 8.196 169.458 8.048C169.818 7.9 170.222 7.826 170.67 7.826ZM170.67 13.25C171.27 13.25 171.718 13.05 172.014 12.65C172.31 12.246 172.458 11.684 172.458 10.964C172.458 10.24 172.31 9.676 172.014 9.272C171.718 8.868 171.27 8.666 170.67 8.666C170.366 8.666 170.1 8.718 169.872 8.822C169.648 8.926 169.46 9.076 169.308 9.272C169.16 9.468 169.048 9.71 168.972 9.998C168.9 10.282 168.864 10.604 168.864 10.964C168.864 11.684 169.012 12.246 169.308 12.65C169.608 13.05 170.062 13.25 170.67 13.25Z" fill="white"/>
</svg>
